HIERARCHY
ROOT Hips
{
	OFFSET 0.000000 0.000000 0.000000
	CHANNELS 6 Xposition Yposition Zposition Xrotation Yrotation Zrotation
	JOINT LeftUpLeg_virtual
	{
		OFFSET 0.000000 0.000000 0.000000
		CHANNELS 3 Xrotation Yrotation Zrotation
		JOINT LeftUpLeg
		{
			OFFSET 11.394100 -6.187798 -0.413800
			CHANNELS 3 Xrotation Yrotation Zrotation
			JOINT LeftLeg
			{
				OFFSET 0.430247 -32.302673 3.732800
				CHANNELS 3 Xrotation Yrotation Zrotation
				JOINT LeftFoot
				{
					OFFSET -0.430247 -48.264931 -6.423300
					CHANNELS 3 Xrotation Yrotation Zrotation
					JOINT LeftToeBase
					{
						OFFSET 4.230900 -16.068199 23.438400
						CHANNELS 3 Xrotation Yrotation Zrotation
						JOINT LeftToe_End
						{
							OFFSET 4.510700 0.695400 19.974600
							CHANNELS 3 Xrotation Yrotation Zrotation
							End Site
							{
								OFFSET 0 0 0
							}
						}
					}
				}
			}
		}
	}
	JOINT RightUpLeg_virtual
	{
		OFFSET 0.000000 0.000000 0.000000
		CHANNELS 3 Xrotation Yrotation Zrotation
		JOINT RightUpLeg
		{
			OFFSET -11.333700 -6.187798 -0.413800
			CHANNELS 3 Xrotation Yrotation Zrotation
			JOINT RightLeg
			{
				OFFSET -0.430392 -32.302628 3.733000
				CHANNELS 3 Xrotation Yrotation Zrotation
				JOINT RightFoot
				{
					OFFSET 0.430392 -48.264973 -6.423500
					CHANNELS 3 Xrotation Yrotation Zrotation
					JOINT RightToeBase
					{
						OFFSET -4.230900 -16.068199 23.438400
						CHANNELS 3 Xrotation Yrotation Zrotation
						JOINT RightToe_End
						{
							OFFSET -4.510700 0.695400 19.974600
							CHANNELS 3 Xrotation Yrotation Zrotation
							End Site
							{
								OFFSET 0 0 0
							}
						}
					}
				}
			}
		}
	}
	JOINT Spine_virtual
	{
		OFFSET 0.000000 0.000000 0.000000
		CHANNELS 3 Xrotation Yrotation Zrotation
		JOINT Spine
		{
			OFFSET -0.002400 12.777504 0.315300
			CHANNELS 3 Xrotation Yrotation Zrotation
			JOINT Spine1
			{
				OFFSET -0.002067 5.816869 0.032633
				CHANNELS 3 Xrotation Yrotation Zrotation
				JOINT Spine1_split
				{
					OFFSET -0.002067 5.816869 0.032633
					CHANNELS 3 Xrotation Yrotation Zrotation
					JOINT Spine2
					{
						OFFSET -0.002067 5.816869 0.032633
						CHANNELS 3 Xrotation Yrotation Zrotation
						JOINT Neck_virtual
						{
							OFFSET 0.000000 0.000000 0.000000
							CHANNELS 3 Xrotation Yrotation Zrotation
							JOINT Neck
							{
								OFFSET -0.003700 21.199493 -0.826900
								CHANNELS 3 Xrotation Yrotation Zrotation
								JOINT Head
								{
									OFFSET 0.000000 20.442200 4.834800
									CHANNELS 3 Xrotation Yrotation Zrotation
									JOINT HeadTop_End
									{
										OFFSET 0.000000 34.668396 4.968400
										CHANNELS 3 Xrotation Yrotation Zrotation
										End Site
										{
											OFFSET 0 0 0
										}
									}
								}
							}
						}
						JOINT LeftShoulder_virtual
						{
							OFFSET 0.000000 0.000000 0.000000
							CHANNELS 3 Xrotation Yrotation Zrotation
							JOINT LeftShoulder
							{
								OFFSET 3.288150 8.794197 -1.372250
								CHANNELS 3 Xrotation Yrotation Zrotation
								JOINT LeftShoulder_split
								{
									OFFSET 3.288150 8.794197 -1.372250
									CHANNELS 3 Xrotation Yrotation Zrotation
									JOINT LeftArm
									{
										OFFSET 11.953299 -2.279007 -0.146200
										CHANNELS 3 Xrotation Yrotation Zrotation
										JOINT LeftForeArm
										{
											OFFSET 18.448900 0.000000 0.000000
											CHANNELS 3 Xrotation Yrotation Zrotation
											JOINT LeftHand
											{
												OFFSET 29.527798 0.000000 0.000000
												CHANNELS 3 Xrotation Yrotation Zrotation
												End Site
												{
													OFFSET 0 0 0
												}
											}
										}
									}
								}
							}
						}
						JOINT RightShoulder_virtual
						{
							OFFSET 0.000000 0.000000 0.000000
							CHANNELS 3 Xrotation Yrotation Zrotation
							JOINT RightShoulder
							{
								OFFSET -3.249400 8.794197 -1.372250
								CHANNELS 3 Xrotation Yrotation Zrotation
								JOINT RightShoulder_split
								{
									OFFSET -3.249400 8.794197 -1.372250
									CHANNELS 3 Xrotation Yrotation Zrotation
									JOINT RightArm
									{
										OFFSET -11.953299 -2.279007 -0.146200
										CHANNELS 3 Xrotation Yrotation Zrotation
										JOINT RightForeArm
										{
											OFFSET -18.448900 0.000000 0.000000
											CHANNELS 3 Xrotation Yrotation Zrotation
											JOINT RightHand
											{
												OFFSET -29.527802 0.000000 0.000000
												CHANNELS 3 Xrotation Yrotation Zrotation
												End Site
												{
													OFFSET 0 0 0
												}
											}
										}
									}
								}
							}
						}
					}
				}
			}
		}
	}
}
MOTION
Frames: 7
Frame Time: 0.03333333
-0.674753 81.805626 -5.507736 0.000000 0.000000 0.000000 -1.204287 -49.106171 2.993482 -43.578192 10.394361 23.072989 58.923427 -10.589006 3.946237 -12.110845 -3.345512 -12.472664 -2.757435 -1.879213 -1.121998 0.000000 0.000000 0.000000 -2.075339 -46.793319 2.832272 -27.723649 -11.431463 -23.453174 60.440904 8.988285 -6.417870 -24.847788 -22.964325 32.359008 4.388885 11.709425 -22.098257 0.000000 0.000000 0.000000 -5.825212 -43.115887 0.000488 3.868516 4.834583 -1.104452 3.727392 -0.381526 -1.246775 0.165129 -0.137043 0.092149 0.000000 0.000000 0.000000 6.124328 0.891945 0.042435 4.912235 14.346437 3.879075 -9.229946 1.858097 -23.640629 0.000000 0.000000 0.000000 6.173708 -0.740164 -1.588202 2.597178 6.109156 -3.237543 2.796542 -6.963125 0.680063 -61.913199 9.373407 -39.734257 170.781681 -64.113381 167.589483 0.000000 0.000000 0.000000 6.501969 -0.545976 -0.420358 -6.311988 12.106121 -6.224113 -3.741865 -5.990130 3.234666 -49.440779 23.679579 91.422847 -150.755976 72.183078 150.751564 0.000000 0.000000 0.000000 
-0.620522 81.798378 -5.543716 0.000000 0.000000 0.000000 -1.085073 -49.140879 3.251246 -43.399804 10.596005 22.739544 58.461420 -10.728328 3.873236 -12.090004 -3.193377 -12.157748 -2.841539 -2.001717 -0.864024 0.000000 0.000000 0.000000 -2.166902 -46.932316 2.995738 -28.132578 -11.746261 -23.755975 60.724330 9.024316 -6.216991 -24.879792 -23.162522 31.880577 4.764299 11.662025 -22.201491 0.000000 0.000000 0.000000 -5.570613 -43.564214 0.265877 3.920103 5.027076 -1.315992 3.746122 -0.339759 -0.993137 0.265522 -0.059095 0.184207 0.000000 0.000000 0.000000 6.139731 1.015466 0.086251 4.764360 14.327517 3.784442 -10.264202 1.942302 -23.410581 0.000000 0.000000 0.000000 6.374867 -0.673470 -1.260179 2.483200 5.388993 -3.562326 3.563848 -6.327594 2.128269 -61.659348 11.055420 -40.717059 166.036995 -64.982543 163.037900 0.000000 0.000000 0.000000 6.590334 -0.425118 -0.232294 -6.225976 12.483661 -6.716701 -3.290985 -4.945892 1.851760 -50.437832 23.888575 91.217224 -152.547316 71.548117 152.558463 0.000000 0.000000 0.000000 
-0.476208 81.849609 -5.462790 0.000000 0.000000 0.000000 -0.874534 -49.513045 3.719394 -42.858317 10.794681 22.246368 57.937360 -11.110505 3.985576 -12.259469 -3.055989 -12.000175 -2.971295 -2.155035 -0.776890 0.000000 0.000000 0.000000 -1.959205 -47.465358 3.394205 -28.496021 -11.604349 -23.854185 60.759314 9.262123 -6.212034 -24.528399 -23.120527 31.490966 4.149534 11.651612 -22.200978 0.000000 0.000000 0.000000 -5.000930 -44.302499 0.901546 3.823901 5.382760 -1.639199 3.731133 -0.204809 -0.673946 0.233604 -0.111137 0.167825 0.000000 0.000000 0.000000 6.183094 1.324450 0.275941 4.456772 14.484832 3.381033 -10.810520 2.373814 -23.114292 0.000000 0.000000 0.000000 6.738607 -0.430616 -0.757977 2.106424 4.639041 -3.187263 4.444341 -4.498865 3.598025 -62.511667 13.568249 -42.300960 162.524925 -64.671762 159.700410 0.000000 0.000000 0.000000 6.446948 -0.147247 0.033389 -5.895197 13.020899 -7.207607 -2.973300 -4.639973 1.148730 -51.580462 24.506946 90.998371 -154.237556 71.177258 154.217366 0.000000 0.000000 0.000000 
-0.328937 81.974174 -5.216730 0.000000 0.000000 0.000000 -0.515988 -50.154844 4.309348 -41.932949 11.120094 21.705281 57.369047 -11.479718 4.114036 -12.740813 -2.709719 -11.795376 -3.028885 -2.310836 -0.852541 0.000000 0.000000 0.000000 -1.366424 -48.321334 3.973617 -28.725337 -10.951483 -23.654007 60.344414 9.653619 -6.432506 -24.281194 -22.865199 30.674643 3.199251 11.525662 -22.059532 0.000000 0.000000 0.000000 -4.117383 -45.399058 1.856110 3.497273 5.801192 -1.938000 3.567294 0.022135 -0.441488 0.105568 -0.198355 0.109562 0.000000 0.000000 0.000000 6.193003 1.742404 0.500198 4.101655 14.780850 2.764733 -10.482906 3.675121 -22.809039 0.000000 0.000000 0.000000 6.999256 -0.038564 -0.262657 1.692278 4.290191 -2.038668 5.715807 -2.741010 3.937054 -63.745090 15.651752 -44.278638 161.681806 -63.818965 158.774373 0.000000 0.000000 0.000000 6.083154 0.200768 0.197262 -5.472549 13.619139 -7.593889 -2.548773 -4.802902 1.386345 -52.644390 25.483589 90.851959 -155.604277 71.177934 155.516454 0.000000 0.000000 0.000000 
-0.256557 82.236366 -4.871027 0.000000 0.000000 0.000000 0.066844 -51.281299 4.947764 -40.563063 11.610746 21.236463 56.858330 -11.658623 4.157255 -13.482714 -1.853483 -11.465312 -2.819846 -2.407584 -1.052939 0.000000 0.000000 0.000000 -0.339172 -49.519684 4.738695 -29.119914 -9.736676 -23.256850 59.444222 10.175389 -6.813278 -24.110933 -22.271080 29.338244 3.044165 11.097125 -21.927197 0.000000 0.000000 0.000000 -2.943337 -46.899415 2.989697 2.977771 6.156601 -2.077375 3.129821 0.287720 -0.440159 -0.054504 -0.213516 0.006758 0.000000 0.000000 0.000000 6.060292 2.170109 0.588215 3.904111 15.185619 2.006485 -9.296536 5.890070 -22.487954 0.000000 0.000000 0.000000 7.001938 0.412274 0.054136 1.337453 4.584455 -0.393146 5.565286 -3.051683 3.073798 -63.791747 17.360097 -45.235144 162.820276 -62.239245 159.735530 0.000000 0.000000 0.000000 5.556649 0.511110 0.182429 -5.047792 14.098862 -7.876838 -2.190075 -5.723592 1.931911 -53.774199 26.825255 90.860702 -156.536543 71.655651 156.360939 0.000000 0.000000 0.000000 
-0.278270 82.691795 -4.456495 0.000000 0.000000 0.000000 0.872613 -53.000526 5.582331 -38.444102 12.412044 20.851903 56.279553 -11.436143 4.005526 -14.643260 -0.272132 -10.685591 -2.289986 -2.441667 -1.356327 0.000000 0.000000 0.000000 0.864539 -51.235496 5.506478 -30.159592 -8.236995 -22.849196 58.173315 10.824678 -7.191879 -23.269121 -21.157477 28.014122 3.883059 10.395120 -22.002674 0.000000 0.000000 0.000000 -1.681521 -48.799075 4.034425 2.481158 6.281329 -1.951680 2.345402 0.505243 -0.702899 -0.107068 -0.224238 -0.063355 0.000000 0.000000 0.000000 5.649287 2.494552 0.490494 3.998074 15.665898 1.214082 -7.470593 8.809444 -22.245467 0.000000 0.000000 0.000000 6.713719 0.783745 0.149780 1.119633 5.540623 1.534390 4.230277 -4.863351 2.205084 -62.677135 17.960442 -44.711378 164.357315 -60.480642 161.022024 0.000000 0.000000 0.000000 5.026034 0.716084 -0.015227 -4.716725 14.289611 -8.098515 -2.084295 -7.084664 2.290487 -55.165922 28.508648 91.164242 -157.035543 72.558213 156.816294 0.000000 0.000000 0.000000 
-0.331107 83.299149 -4.029408 0.000000 0.000000 0.000000 1.764667 -55.314075 6.121935 -35.575501 13.623354 20.545911 55.519913 -10.720782 3.631314 -16.277048 1.936213 -9.248862 -1.657044 -2.443090 -1.703666 0.000000 0.000000 0.000000 1.973044 -53.492136 6.155150 -31.901263 -6.862178 -22.590513 56.600893 11.735397 -7.512533 -21.316240 -19.440585 27.471385 4.936543 9.688059 -22.669343 0.000000 0.000000 0.000000 -0.558039 -50.836070 4.678548 2.164786 6.178098 -1.555255 1.454888 0.595436 -1.082214 -0.023811 -0.219605 0.014345 0.000000 0.000000 0.000000 4.964282 2.595489 0.287946 4.129282 16.224194 0.562724 -5.549008 12.199125 -22.081645 0.000000 0.000000 0.000000 6.193115 0.934578 0.110140 0.887393 6.727510 3.382564 2.728924 -6.866551 0.929092 -61.734009 16.688642 -42.666781 163.988238 -59.743391 160.451389 0.000000 0.000000 0.000000 4.575142 0.736808 -0.284700 -4.511441 14.120922 -8.242784 -1.879959 -8.318951 2.623340 -57.115883 30.446463 91.562702 -157.544310 73.475979 157.377831 0.000000 0.000000 0.000000 
